<svg xmlns="http://www.w3.org/2000/svg" xmlns:xlink="http://www.w3.org/1999/xlink" width="120" zoomAndPan="magnify" viewBox="0 0 90 74.999997" height="100" preserveAspectRatio="xMidYMid meet" version="1.0"><defs><clipPath id="098c29b55d"><path d="M 49 24 L 90 24 L 90 51 L 49 51 Z M 49 24 " clip-rule="nonzero"/></clipPath><clipPath id="71951b166f"><path d="M 49.585938 49.488281 L 50.0625 24.742188 L 89.804688 25.507812 L 89.328125 50.253906 Z M 49.585938 49.488281 " clip-rule="nonzero"/></clipPath><clipPath id="ab33d2fb1f"><path d="M 50.0625 24.730469 L 49.585938 49.476562 L 89.328125 50.242188 L 89.804688 25.496094 Z M 50.0625 24.730469 " clip-rule="nonzero"/></clipPath><clipPath id="f369598c2a"><path d="M 50.0625 24.730469 L 49.585938 49.476562 L 89.328125 50.242188 L 89.804688 25.496094 Z M 50.0625 24.730469 " clip-rule="nonzero"/></clipPath></defs><g clip-path="url(#098c29b55d)"><g clip-path="url(#71951b166f)"><g clip-path="url(#ab33d2fb1f)"><g clip-path="url(#f369598c2a)"><path fill="#000000" d="M 49.921875 31.914062 C 50 27.957031 53.273438 24.792969 57.214844 24.871094 C 59.328125 24.910156 61.210938 25.871094 62.492188 27.367188 L 60.03125 27.320312 C 59.207031 26.792969 58.234375 26.484375 57.183594 26.464844 C 54.117188 26.40625 51.574219 28.867188 51.511719 31.945312 C 51.453125 35.027344 53.902344 37.582031 56.96875 37.640625 C 58.019531 37.660156 59 37.394531 59.847656 36.898438 L 62.308594 36.945312 C 60.96875 38.390625 59.054688 39.277344 56.9375 39.238281 C 52.996094 39.160156 49.847656 35.875 49.921875 31.914062 Z M 54.691406 32.007812 C 54.707031 31.257812 54.976562 30.496094 55.507812 29.890625 C 56.042969 29.28125 56.875 28.855469 57.855469 28.875 L 73.390625 29.175781 C 73.523438 28.820312 73.574219 28.503906 74.136719 27.867188 C 74.964844 26.945312 76.417969 26.039062 78.582031 26.078125 C 82.167969 26.148438 84.429688 28.417969 85.863281 29.378906 C 88.003906 30.816406 89.660156 33.066406 89.605469 35.792969 L 89.464844 43.058594 C 89.390625 47.007812 86.105469 50.179688 82.175781 50.105469 L 70.25 49.875 C 69.65625 49.863281 68.757812 49.824219 67.90625 49.390625 C 67.054688 48.953125 66.3125 47.96875 66.339844 46.605469 C 66.351562 45.855469 66.617188 45.261719 66.976562 44.78125 C 66.5625 44.652344 66.175781 44.488281 65.859375 44.234375 C 65.140625 43.660156 64.824219 42.742188 64.839844 41.785156 C 64.859375 40.894531 65.199219 40.210938 65.65625 39.691406 C 64.789062 39.144531 64.113281 38.230469 64.136719 36.980469 C 64.148438 36.359375 64.363281 35.847656 64.644531 35.394531 L 57.808594 35.261719 C 56.804688 35.242188 55.96875 34.792969 55.441406 34.164062 C 54.917969 33.535156 54.679688 32.757812 54.691406 32.007812 Z M 56.28125 32.039062 C 56.273438 32.40625 56.410156 32.835938 56.660156 33.140625 C 56.914062 33.441406 57.257812 33.652344 57.839844 33.664062 L 67.378906 33.847656 L 70.558594 33.910156 C 70.585938 33.910156 70.613281 33.914062 70.636719 33.917969 C 70.71875 33.925781 70.792969 33.949219 70.867188 33.984375 C 70.890625 33.996094 70.914062 34.007812 70.9375 34.019531 C 70.984375 34.046875 71.023438 34.078125 71.0625 34.113281 C 71.082031 34.132812 71.101562 34.152344 71.121094 34.171875 C 71.15625 34.210938 71.1875 34.253906 71.214844 34.300781 C 71.257812 34.367188 71.285156 34.441406 71.304688 34.519531 C 71.34375 34.679688 71.332031 34.835938 71.277344 34.992188 C 71.265625 35.015625 71.253906 35.042969 71.242188 35.066406 C 71.207031 35.136719 71.164062 35.203125 71.105469 35.261719 C 71.089844 35.28125 71.070312 35.296875 71.046875 35.3125 C 71.027344 35.332031 71.007812 35.347656 70.984375 35.363281 C 70.898438 35.425781 70.800781 35.46875 70.695312 35.488281 C 70.671875 35.496094 70.644531 35.5 70.617188 35.503906 C 70.589844 35.503906 70.566406 35.507812 70.539062 35.507812 C 70.535156 35.507812 70.53125 35.507812 70.527344 35.507812 L 67.347656 35.445312 C 66.652344 35.433594 65.75 35.941406 65.726562 37.011719 C 65.707031 38.078125 66.589844 38.625 67.285156 38.636719 L 68.082031 38.652344 L 69.671875 38.683594 C 69.699219 38.683594 69.722656 38.6875 69.75 38.691406 C 69.777344 38.695312 69.804688 38.699219 69.828125 38.707031 C 70.015625 38.75 70.167969 38.851562 70.285156 39.007812 C 70.300781 39.027344 70.316406 39.050781 70.328125 39.074219 C 70.371094 39.140625 70.398438 39.214844 70.417969 39.292969 C 70.425781 39.320312 70.429688 39.347656 70.433594 39.371094 C 70.441406 39.425781 70.441406 39.480469 70.4375 39.53125 C 70.4375 39.558594 70.433594 39.585938 70.429688 39.613281 C 70.425781 39.636719 70.421875 39.664062 70.414062 39.6875 C 70.398438 39.742188 70.378906 39.792969 70.355469 39.839844 C 70.332031 39.886719 70.304688 39.929688 70.269531 39.972656 C 70.222656 40.039062 70.164062 40.09375 70.097656 40.136719 C 70.054688 40.167969 70.007812 40.195312 69.960938 40.214844 C 69.886719 40.246094 69.808594 40.269531 69.730469 40.277344 C 69.703125 40.28125 69.679688 40.28125 69.652344 40.28125 C 69.648438 40.28125 69.644531 40.28125 69.640625 40.28125 L 68.050781 40.25 C 67.628906 40.242188 67.207031 40.347656 66.933594 40.5625 C 66.660156 40.773438 66.445312 41.082031 66.429688 41.816406 C 66.417969 42.453125 66.550781 42.746094 66.855469 42.988281 C 67.15625 43.230469 67.765625 43.4375 68.785156 43.457031 L 70.375 43.488281 C 70.425781 43.488281 70.480469 43.496094 70.53125 43.507812 C 70.664062 43.539062 70.78125 43.597656 70.882812 43.6875 C 70.902344 43.703125 70.921875 43.722656 70.9375 43.742188 C 70.957031 43.761719 70.976562 43.78125 70.992188 43.804688 C 71.039062 43.867188 71.078125 43.9375 71.105469 44.011719 C 71.113281 44.039062 71.121094 44.0625 71.128906 44.089844 C 71.136719 44.113281 71.140625 44.140625 71.144531 44.167969 C 71.152344 44.210938 71.15625 44.257812 71.152344 44.300781 C 71.152344 44.328125 71.152344 44.355469 71.148438 44.382812 C 71.144531 44.410156 71.140625 44.433594 71.136719 44.460938 C 71.105469 44.59375 71.046875 44.710938 70.957031 44.8125 C 70.941406 44.832031 70.921875 44.851562 70.902344 44.871094 C 70.882812 44.886719 70.863281 44.90625 70.839844 44.921875 C 70.820312 44.9375 70.796875 44.953125 70.777344 44.96875 C 70.753906 44.980469 70.730469 44.992188 70.707031 45.003906 C 70.679688 45.015625 70.65625 45.027344 70.632812 45.035156 C 70.582031 45.054688 70.53125 45.070312 70.480469 45.078125 C 70.433594 45.082031 70.390625 45.085938 70.34375 45.085938 C 69.824219 45.074219 69.136719 45.121094 68.679688 45.332031 C 68.222656 45.542969 67.945312 45.765625 67.929688 46.636719 C 67.910156 47.507812 68.179688 47.738281 68.628906 47.96875 C 69.074219 48.195312 69.761719 48.269531 70.28125 48.277344 L 82.203125 48.507812 C 85.269531 48.566406 87.816406 46.105469 87.875 43.027344 L 88.015625 35.765625 C 88.054688 33.703125 86.804688 31.929688 84.980469 30.707031 C 83.277344 29.566406 81.484375 27.734375 78.550781 27.675781 C 76.820312 27.644531 75.898438 28.289062 75.320312 28.933594 C 74.746094 29.578125 74.582031 30.1875 74.582031 30.1875 C 74.535156 30.367188 74.4375 30.507812 74.292969 30.621094 C 74.144531 30.730469 73.980469 30.78125 73.800781 30.777344 L 57.824219 30.472656 C 57.292969 30.460938 56.960938 30.648438 56.699219 30.945312 C 56.441406 31.242188 56.289062 31.667969 56.28125 32.039062 Z M 56.28125 32.039062 " fill-opacity="1" fill-rule="nonzero"/></g></g></g></g></svg>